<?xml version="1.0" encoding="UTF-8"?>
<svg xmlns="http://www.w3.org/2000/svg" width="1400" height="900" viewBox="0 0 1400 900">
<defs>
  <style>
    .title { font: 700 28px 'Segoe UI', sans-serif; fill: #0f172a; }
    .subtitle { font: 400 14px 'Consolas', monospace; fill: #334155; }
    .panel { fill: #f8fafc; stroke: #cbd5e1; stroke-width: 1.4; }
    .panelTitle { font: 700 18px 'Segoe UI', sans-serif; fill: #0f172a; }
    .panelMeta { font: 400 12px 'Consolas', monospace; fill: #475569; }
    .grid { stroke: #e2e8f0; stroke-width: 1; }
    .axis { stroke: #64748b; stroke-width: 1.4; }
    .curve { fill: none; stroke-width: 2.2; }
    .axisLabel { font: 400 12px 'Consolas', monospace; fill: #334155; }
  </style>
</defs>
<rect x="0" y="0" width="1400" height="900" fill="#ffffff"/>
<text x="40" y="42" class="title">Damped Pendulum: 4-State Comparison</text>
<text x="40" y="66" class="subtitle">m = 1.000 kg, L = 1.000 m, g = 9.810 m/s^2, b_c = 6.264184 kg/s, theta0 = 0.300 rad, duration = 20.00 s, dt = 0.0050 s</text>
<rect x="40.00" y="130.00" width="648.00" height="353.00" class="panel"/>
<text x="52.00" y="154.00" class="panelTitle">Undamped (b = 0)</text>
<text x="52.00" y="174.00" class="panelMeta">b = 0.000000 kg/s (b / b_c = 0.000)</text>
<line x1="90.00" y1="218.25" x2="676.00" y2="218.25" class="grid"/>
<line x1="90.00" y1="306.50" x2="676.00" y2="306.50" class="grid"/>
<line x1="90.00" y1="394.75" x2="676.00" y2="394.75" class="grid"/>
<line x1="207.20" y1="184.00" x2="207.20" y2="455.00" class="grid"/>
<line x1="324.40" y1="184.00" x2="324.40" y2="455.00" class="grid"/>
<line x1="441.60" y1="184.00" x2="441.60" y2="455.00" class="grid"/>
<line x1="558.80" y1="184.00" x2="558.80" y2="455.00" class="grid"/>
<line x1="90.00" y1="306.50" x2="676.00" y2="306.50" class="axis"/>
<line x1="90.00" y1="184.00" x2="90.00" y2="455.00" class="axis"/>
<text x="48.00" y="200.00" class="axisLabel">theta (rad)</text>
<text x="644.00" y="473.00" class="axisLabel">t (s)</text>
<text x="50.00" y="188.00" class="axisLabel">+0.324</text>
<text x="68.00" y="310.50" class="axisLabel">0</text>
<text x="50.00" y="453.00" class="axisLabel">-0.324</text>
<polyline class="curve" stroke="#0f766e" points="90.00,194.04 90.59,194.28 91.17,195.02 91.76,196.25 92.34,197.96 92.93,200.14 93.52,202.79 94.10,205.91 94.69,209.46 95.27,213.45 95.86,217.86 96.45,222.66 97.03,227.85 97.62,233.39 98.20,239.27 98.79,245.47 99.38,251.95 99.96,258.70 100.55,265.69 101.13,272.89 101.72,280.28 102.31,287.81 102.89,295.48 103.48,303.23 104.06,311.05 104.65,318.90 105.24,326.76 105.82,334.59 106.41,342.35 106.99,350.03 107.58,357.59 108.17,365.00 108.75,372.23 109.34,379.25 109.92,386.04 110.51,392.57 111.10,398.81 111.68,404.74 112.27,410.34 112.85,415.58 113.44,420.44 114.03,424.90 114.61,428.96 115.20,432.58 115.78,435.76 116.37,438.49 116.96,440.74 117.54,442.53 118.13,443.83 118.71,444.64 119.30,444.96 119.89,444.79 120.47,444.12 121.06,442.97 121.64,441.34 122.23,439.22 122.82,436.64 123.40,433.59 123.99,430.10 124.57,426.18 125.16,421.84 125.75,417.09 126.33,411.96 126.92,406.47 127.50,400.64 128.09,394.49 128.68,388.05 129.26,381.34 129.85,374.38 130.43,367.21 131.02,359.85 131.61,352.34 132.19,344.69 132.78,336.95 133.36,329.14 133.95,321.29 134.54,313.43 135.12,305.60 135.71,297.82 136.29,290.13 136.88,282.55 137.47,275.11 138.05,267.86 138.64,260.80 139.22,253.97 139.81,247.40 140.40,241.12 140.98,235.14 141.57,229.49 142.15,224.20 142.74,219.27 143.33,214.75 143.91,210.63 144.50,206.94 145.08,203.69 145.67,200.90 146.26,198.57 146.84,196.71 147.43,195.34 148.01,194.45 148.60,194.06 149.19,194.16 149.77,194.74 150.36,195.82 150.94,197.39 151.53,199.43 152.12,201.94 152.70,204.92 153.29,208.34 153.87,212.20 154.46,216.48 155.05,221.16 155.63,226.23 156.22,231.67 156.80,237.45 157.39,243.55 157.98,249.96 158.56,256.63 159.15,263.55 159.73,270.69 160.32,278.02 160.91,285.51 161.49,293.14 162.08,300.87 162.66,308.67 163.25,316.52 163.84,324.38 164.42,332.22 165.01,340.01 165.59,347.71 166.18,355.31 166.77,362.77 167.35,370.06 167.94,377.14 168.52,384.01 169.11,390.62 169.70,396.95 170.28,402.98 170.87,408.68 171.45,414.03 172.04,419.00 172.63,423.59 173.21,427.77 173.80,431.53 174.38,434.85 174.97,437.71 175.56,440.11 176.14,442.04 176.73,443.48 177.31,444.44 177.90,444.91 178.49,444.89 179.07,444.38 179.66,443.37 180.24,441.88 180.83,439.91 181.42,437.47 182.00,434.57 182.59,431.21 183.17,427.41 183.76,423.20 184.35,418.57 184.93,413.56 185.52,408.18 186.10,402.45 186.69,396.39 187.28,390.03 187.86,383.40 188.45,376.52 189.03,369.41 189.62,362.10 190.21,354.63 190.79,347.02 191.38,339.31 191.96,331.51 192.55,323.67 193.14,315.81 193.72,307.97 194.31,300.17 194.89,292.45 195.48,284.83 196.07,277.35 196.65,270.04 197.24,262.92 197.82,256.02 198.41,249.37 199.00,242.99 199.58,236.92 200.17,231.17 200.75,225.76 201.34,220.73 201.93,216.08 202.51,211.83 203.10,208.01 203.68,204.63 204.27,201.70 204.86,199.22 205.44,197.23 206.03,195.71 206.61,194.67 207.20,194.13 207.79,194.08 208.37,194.51 208.96,195.44 209.54,196.86 210.13,198.76 210.72,201.13 211.30,203.96 211.89,207.25 212.47,210.98 213.06,215.14 213.65,219.70 214.23,224.66 214.82,229.98 215.40,235.66 215.99,241.67 216.58,247.98 217.16,254.58 217.75,261.43 218.33,268.50 218.92,275.78 219.51,283.22 220.09,290.81 220.68,298.52 221.26,306.30 221.85,314.14 222.44,322.00 223.02,329.84 223.61,337.65 224.19,345.39 224.78,353.02 225.37,360.52 225.95,367.86 226.54,375.02 227.12,381.95 227.71,388.64 228.30,395.06 228.88,401.18 229.47,406.98 230.05,412.44 230.64,417.53 231.23,422.24 231.81,426.55 232.40,430.44 232.98,433.89 233.57,436.89 234.16,439.43 234.74,441.50 235.33,443.09 235.91,444.20 236.50,444.82 237.09,444.95 237.67,444.58 238.26,443.73 238.84,442.39 239.43,440.56 240.02,438.26 240.60,435.49 241.19,432.27 241.77,428.61 242.36,424.52 242.95,420.02 243.53,415.12 244.12,409.85 244.70,404.22 245.29,398.26 245.88,391.99 246.46,385.44 247.05,378.63 247.63,371.59 248.22,364.34 248.81,356.91 249.39,349.34 249.98,341.66 250.56,333.88 251.15,326.05 251.74,318.20 252.32,310.35 252.91,302.53 253.49,294.78 254.08,287.13 254.67,279.61 255.25,272.24 255.84,265.05 256.42,258.09 257.01,251.36 257.60,244.90 258.18,238.73 258.77,232.88 259.35,227.36 259.94,222.21 260.53,217.45 261.11,213.08 261.70,209.13 262.28,205.61 262.87,202.54 263.46,199.92 264.04,197.78 264.63,196.12 265.21,194.93 265.80,194.24 266.39,194.04 266.97,194.33 267.56,195.11 268.14,196.38 268.73,198.13 269.32,200.36 269.90,203.06 270.49,206.21 271.07,209.81 271.66,213.83 272.25,218.27 272.83,223.11 273.42,228.33 274.00,233.90 274.59,239.82 275.18,246.04 275.76,252.55 276.35,259.32 276.93,266.33 277.52,273.55 278.11,280.95 278.69,288.50 279.28,296.17 279.86,303.93 280.45,311.76 281.04,319.61 281.62,327.47 282.21,335.29 282.79,343.05 283.38,350.72 283.97,358.26 284.55,365.66 285.14,372.87 285.72,379.87 286.31,386.64 286.90,393.14 287.48,399.36 288.07,405.26 288.65,410.82 289.24,416.03 289.83,420.86 290.41,425.29 291.00,429.30 291.58,432.89 292.17,436.03 292.76,438.71 293.34,440.92 293.93,442.66 294.51,443.92 295.10,444.69 295.69,444.96 296.27,444.75 296.86,444.04 297.44,442.84 298.03,441.16 298.62,439.01 299.20,436.38 299.79,433.30 300.37,429.77 300.96,425.80 301.55,421.42 302.13,416.65 302.72,411.48 303.30,405.96 303.89,400.10 304.48,393.93 305.06,387.46 305.65,380.72 306.23,373.74 306.82,366.56 307.41,359.18 307.99,351.65 308.58,344.00 309.16,336.25 309.75,328.43 310.34,320.58 310.92,312.72 311.51,304.90 312.09,297.12 312.68,289.44 313.27,281.87 313.85,274.45 314.44,267.21 315.02,260.17 315.61,253.37 316.20,246.83 316.78,240.57 317.37,234.62 317.95,229.00 318.54,223.74 319.13,218.85 319.71,214.36 320.30,210.28 320.88,206.63 321.47,203.42 322.06,200.67 322.64,198.38 323.23,196.57 323.81,195.24 324.40,194.40 324.99,194.05 325.57,194.19 326.16,194.82 326.74,195.94 327.33,197.55 327.92,199.63 328.50,202.19 329.09,205.21 329.67,208.67 330.26,212.57 330.85,216.88 331.43,221.60 332.02,226.71 332.60,232.18 333.19,237.99 333.78,244.12 334.36,250.54 334.95,257.24 335.53,264.18 336.12,271.34 336.71,278.69 337.29,286.19 337.88,293.83 338.46,301.57 339.05,309.38 339.64,317.23 340.22,325.08 340.81,332.92 341.39,340.70 341.98,348.40 342.57,355.99 343.15,363.43 343.74,370.70 344.32,377.77 344.91,384.61 345.50,391.20 346.08,397.50 346.67,403.50 347.25,409.17 347.84,414.49 348.43,419.43 349.01,423.99 349.60,428.13 350.18,431.85 350.77,435.12 351.36,437.94 351.94,440.30 352.53,442.19 353.11,443.59 353.70,444.50 354.29,444.93 354.87,444.86 355.46,444.31 356.04,443.26 356.63,441.72 357.22,439.71 357.80,437.23 358.39,434.28 358.97,430.89 359.56,427.05 360.15,422.80 360.73,418.14 361.32,413.09 361.90,407.67 362.49,401.91 363.08,395.83 363.66,389.45 364.25,382.79 364.83,375.88 365.42,368.76 366.01,361.44 366.59,353.95 367.18,346.33 367.76,338.61 368.35,330.81 368.94,322.96 369.52,315.11 370.11,307.27 370.69,299.47 371.28,291.76 371.87,284.15 372.45,276.69 373.04,269.39 373.62,262.29 374.21,255.41 374.80,248.78 375.38,242.43 375.97,236.39 376.55,230.67 377.14,225.29 377.73,220.29 378.31,215.68 378.90,211.47 379.48,207.69 380.07,204.35 380.66,201.45 381.24,199.03 381.83,197.07 382.41,195.59 383.00,194.60 383.59,194.10 384.17,194.09 384.76,194.58 385.34,195.55 385.93,197.01 386.52,198.95 387.10,201.37 387.69,204.24 388.27,207.57 388.86,211.34 389.45,215.53 390.03,220.13 390.62,225.12 391.20,230.48 391.79,236.19 392.38,242.23 392.96,248.57 393.55,255.18 394.13,262.05 394.72,269.15 395.31,276.44 395.89,283.90 396.48,291.50 397.06,299.21 397.65,307.00 398.24,314.84 398.82,322.70 399.41,330.55 399.99,338.35 400.58,346.08 401.17,353.70 401.75,361.19 402.34,368.52 402.92,375.65 403.51,382.56 404.10,389.23 404.68,395.62 405.27,401.72 405.85,407.49 406.44,412.91 407.03,417.97 407.61,422.65 408.20,426.92 408.78,430.76 409.37,434.18 409.96,437.14 410.54,439.64 411.13,441.67 411.71,443.21 412.30,444.28 412.89,444.85 413.47,444.94 414.06,444.53 414.64,443.63 415.23,442.24 415.82,440.37 416.40,438.03 416.99,435.22 417.57,431.96 418.16,428.26 418.75,424.13 419.33,419.59 419.92,414.66 420.50,409.35 421.09,403.70 421.68,397.71 422.26,391.41 422.85,384.84 423.43,378.00 424.02,370.94 424.61,363.68 425.19,356.24 425.78,348.66 426.36,340.96 426.95,333.18 427.54,325.35 428.12,317.49 428.71,309.64 429.29,301.83 429.88,294.09 430.47,286.45 431.05,278.94 431.64,271.58 432.22,264.42 432.81,257.47 433.40,250.76 433.98,244.33 434.57,238.19 435.15,232.37 435.74,226.89 436.33,221.77 436.91,217.04 437.50,212.70 438.08,208.79 438.67,205.31 439.26,202.28 439.84,199.71 440.43,197.61 441.01,195.99 441.60,194.85 442.19,194.20 442.77,194.05 443.36,194.38 443.94,195.21 444.53,196.52 445.12,198.31 445.70,200.58 446.29,203.32 446.87,206.51 447.46,210.15 448.05,214.22 448.63,218.69 449.22,223.57 449.80,228.82 450.39,234.42 450.98,240.36 451.56,246.61 452.15,253.15 452.73,259.94 453.32,266.97 453.91,274.21 454.49,281.62 455.08,289.18 455.66,296.87 456.25,304.64 456.84,312.46 457.42,320.32 458.01,328.17 458.59,335.99 459.18,343.74 459.77,351.40 460.35,358.93 460.94,366.31 461.52,373.51 462.11,380.49 462.70,387.24 463.28,393.71 463.87,399.90 464.45,405.77 465.04,411.31 465.63,416.48 466.21,421.27 466.80,425.67 467.38,429.64 467.97,433.19 468.56,436.29 469.14,438.93 469.73,441.10 470.31,442.80 470.90,444.01 471.49,444.73 472.07,444.96 472.66,444.70 473.24,443.95 473.83,442.71 474.42,440.99 475.00,438.79 475.59,436.12 476.17,433.00 476.76,429.43 477.35,425.43 477.93,421.01 478.52,416.20 479.10,411.00 479.69,405.45 480.28,399.56 480.86,393.35 481.45,386.86 482.03,380.10 482.62,373.11 483.21,365.90 483.79,358.51 484.38,350.97 484.96,343.31 485.55,335.55 486.14,327.73 486.72,319.87 487.31,312.02 487.89,304.19 488.48,296.43 489.07,288.75 489.65,281.20 490.24,273.79 490.82,266.57 491.41,259.55 492.00,252.77 492.58,246.25 493.17,240.02 493.75,234.10 494.34,228.51 494.93,223.28 495.51,218.43 496.10,213.97 496.68,209.93 497.27,206.32 497.86,203.15 498.44,200.44 499.03,198.20 499.61,196.43 500.20,195.15 500.79,194.35 501.37,194.04 501.96,194.23 502.54,194.90 503.13,196.07 503.72,197.72 504.30,199.85 504.89,202.44 505.47,205.50 506.06,209.00 506.65,212.94 507.23,217.29 507.82,222.05 508.40,227.19 508.99,232.69 509.58,238.53 510.16,244.69 510.75,251.14 511.33,257.86 511.92,264.82 512.51,271.99 513.09,279.36 513.68,286.88 514.26,294.52 514.85,302.27 515.44,310.08 516.02,317.93 516.61,325.79 517.19,333.62 517.78,341.40 518.37,349.09 518.95,356.66 519.54,364.09 520.12,371.35 520.71,378.40 521.30,385.22 521.88,391.78 522.47,398.06 523.05,404.03 523.64,409.66 524.23,414.95 524.81,419.86 525.40,424.38 525.98,428.48 526.57,432.16 527.16,435.39 527.74,438.18 528.33,440.49 528.91,442.33 529.50,443.69 530.09,444.56 530.67,444.94 531.26,444.83 531.84,444.23 532.43,443.14 533.02,441.56 533.60,439.51 534.19,436.98 534.77,433.99 535.36,430.56 535.95,426.69 536.53,422.39 537.12,417.70 537.70,412.62 538.29,407.17 538.88,401.38 539.46,395.27 540.05,388.86 540.63,382.18 541.22,375.25 541.81,368.11 542.39,360.77 542.98,353.27 543.56,345.64 544.15,337.91 544.74,330.10 545.32,322.26 545.91,314.40 546.49,306.56 547.08,298.78 547.67,291.07 548.25,283.48 548.84,276.02 549.42,268.74 550.01,261.66 550.60,254.80 551.18,248.20 551.77,241.88 552.35,235.86 552.94,230.17 553.53,224.83 554.11,219.86 554.70,215.28 555.28,211.11 555.87,207.37 556.46,204.07 557.04,201.22 557.63,198.83 558.21,196.92 558.80,195.48 559.39,194.54 559.97,194.08 560.56,194.12 561.14,194.65 561.73,195.66 562.32,197.17 562.90,199.15 563.49,201.61 564.07,204.52 564.66,207.89 565.25,211.70 565.83,215.93 566.42,220.56 567.00,225.59 567.59,230.98 568.18,236.72 568.76,242.79 569.35,249.15 569.93,255.79 570.52,262.68 571.11,269.80 571.69,277.11 572.28,284.58 572.86,292.19 573.45,299.91 574.04,307.71 574.62,315.55 575.21,323.41 575.79,331.25 576.38,339.05 576.97,346.77 577.55,354.38 578.14,361.86 578.72,369.17 579.31,376.28 579.90,383.17 580.48,389.82 581.07,396.18 581.65,402.25 582.24,407.99 582.83,413.38 583.41,418.41 584.00,423.05 584.58,427.28 585.17,431.09 585.76,434.46 586.34,437.38 586.93,439.84 587.51,441.82 588.10,443.33 588.69,444.35 589.27,444.88 589.86,444.92 590.44,444.47 591.03,443.52 591.62,442.09 592.20,440.18 592.79,437.80 593.37,434.95 593.96,431.65 594.55,427.91 595.13,423.74 595.72,419.16 596.30,414.20 596.89,408.86 597.48,403.17 598.06,397.15 598.65,390.83 599.23,384.23 599.82,377.38 600.41,370.30 600.99,363.01 601.58,355.56 602.16,347.97 602.75,340.26 603.34,332.48 603.92,324.64 604.51,316.78 605.09,308.94 605.68,301.13 606.27,293.40 606.85,285.77 607.44,278.27 608.02,270.93 608.61,263.78 609.20,256.86 609.78,250.17 610.37,243.76 610.95,237.65 611.54,231.86 612.13,226.41 612.71,221.33 613.30,216.63 613.88,212.33 614.47,208.46 615.06,205.02 615.64,202.03 616.23,199.50 616.81,197.45 617.40,195.87 617.99,194.77 618.57,194.17 619.16,194.05 619.74,194.43 620.33,195.30 620.92,196.66 621.50,198.50 622.09,200.81 622.67,203.59 623.26,206.82 623.85,210.50 624.43,214.60 625.02,219.12 625.60,224.03 626.19,229.31 626.78,234.94 627.36,240.91 627.95,247.19 628.53,253.75 629.12,260.57 629.71,267.62 630.29,274.87 630.88,282.30 631.46,289.87 632.05,297.56 632.64,305.34 633.22,313.17 633.81,321.03 634.39,328.88 634.98,336.69 635.57,344.44 636.15,352.08 636.74,359.61 637.32,366.97 637.91,374.15 638.50,381.11 639.08,387.83 639.67,394.28 640.25,400.44 640.84,406.28 641.43,411.79 642.01,416.93 642.60,421.68 643.18,426.04 643.77,429.98 644.36,433.48 644.94,436.54 645.53,439.14 646.11,441.27 646.70,442.92 647.29,444.09 647.87,444.77 648.46,444.96 649.04,444.66 649.63,443.86 650.22,442.58 650.80,440.81 651.39,438.57 651.97,435.86 652.56,432.70 653.15,429.09 653.73,425.05 654.32,420.59 654.90,415.74 655.49,410.52 656.08,404.93 656.66,399.01 657.25,392.78 657.83,386.26 658.42,379.48 659.01,372.47 659.59,365.24 660.18,357.84 660.76,350.29 661.35,342.61 661.94,334.85 662.52,327.02 663.11,319.17 663.69,311.31 664.28,303.49 664.87,295.73 665.45,288.07 666.04,280.53 666.62,273.14 667.21,265.93 667.80,258.93 668.38,252.17 668.97,245.68 669.55,239.47 670.14,233.58 670.73,228.02 671.31,222.83 671.90,218.01 672.48,213.59 673.07,209.59 673.66,206.02 674.24,202.89 674.83,200.22 675.41,198.02 676.00,196.30 "/>
<text x="87.00" y="471.00" class="axisLabel">0</text>
<text x="656.00" y="471.00" class="axisLabel">20.0</text>
<rect x="712.00" y="130.00" width="648.00" height="353.00" class="panel"/>
<text x="724.00" y="154.00" class="panelTitle">Underdamped (0 < b < b_c)</text>
<text x="724.00" y="174.00" class="panelMeta">b = 2.505674 kg/s (b / b_c = 0.400)</text>
<line x1="762.00" y1="218.25" x2="1348.00" y2="218.25" class="grid"/>
<line x1="762.00" y1="306.50" x2="1348.00" y2="306.50" class="grid"/>
<line x1="762.00" y1="394.75" x2="1348.00" y2="394.75" class="grid"/>
<line x1="879.20" y1="184.00" x2="879.20" y2="455.00" class="grid"/>
<line x1="996.40" y1="184.00" x2="996.40" y2="455.00" class="grid"/>
<line x1="1113.60" y1="184.00" x2="1113.60" y2="455.00" class="grid"/>
<line x1="1230.80" y1="184.00" x2="1230.80" y2="455.00" class="grid"/>
<line x1="762.00" y1="306.50" x2="1348.00" y2="306.50" class="axis"/>
<line x1="762.00" y1="184.00" x2="762.00" y2="455.00" class="axis"/>
<text x="720.00" y="200.00" class="axisLabel">theta (rad)</text>
<text x="1316.00" y="473.00" class="axisLabel">t (s)</text>
<text x="722.00" y="188.00" class="axisLabel">+0.324</text>
<text x="740.00" y="310.50" class="axisLabel">0</text>
<text x="722.00" y="453.00" class="axisLabel">-0.324</text>
<polyline class="curve" stroke="#2563eb" points="762.00,194.04 762.59,194.28 763.17,194.99 763.76,196.14 764.34,197.71 764.93,199.66 765.52,201.98 766.10,204.64 766.69,207.60 767.27,210.85 767.86,214.35 768.45,218.09 769.03,222.03 769.62,226.15 770.20,230.43 770.79,234.84 771.38,239.36 771.96,243.96 772.55,248.63 773.13,253.34 773.72,258.07 774.31,262.81 774.89,267.53 775.48,272.22 776.06,276.86 776.65,281.44 777.24,285.94 777.82,290.35 778.41,294.66 778.99,298.84 779.58,302.91 780.17,306.84 780.75,310.62 781.34,314.25 781.92,317.73 782.51,321.04 783.10,324.19 783.68,327.16 784.27,329.96 784.85,332.58 785.44,335.03 786.03,337.29 786.61,339.38 787.20,341.29 787.78,343.02 788.37,344.58 788.96,345.96 789.54,347.18 790.13,348.23 790.71,349.12 791.30,349.85 791.89,350.43 792.47,350.86 793.06,351.16 793.64,351.31 794.23,351.34 794.82,351.25 795.40,351.03 795.99,350.71 796.57,350.29 797.16,349.76 797.75,349.15 798.33,348.45 798.92,347.68 799.50,346.84 800.09,345.93 800.68,344.97 801.26,343.95 801.85,342.89 802.43,341.80 803.02,340.67 803.61,339.52 804.19,338.34 804.78,337.15 805.36,335.96 805.95,334.76 806.54,333.55 807.12,332.36 807.71,331.17 808.29,329.99 808.88,328.84 809.47,327.70 810.05,326.59 810.64,325.51 811.22,324.45 811.81,323.43 812.40,322.44 812.98,321.49 813.57,320.58 814.15,319.71 814.74,318.88 815.33,318.09 815.91,317.35 816.50,316.65 817.08,316.00 817.67,315.39 818.26,314.83 818.84,314.31 819.43,313.84 820.01,313.42 820.60,313.03 821.19,312.69 821.77,312.40 822.36,312.14 822.94,311.93 823.53,311.75 824.12,311.61 824.70,311.51 825.29,311.45 825.87,311.42 826.46,311.42 827.05,311.45 827.63,311.52 828.22,311.61 828.80,311.72 829.39,311.86 829.98,312.02 830.56,312.20 831.15,312.41 831.73,312.62 832.32,312.86 832.91,313.11 833.49,313.37 834.08,313.64 834.66,313.92 835.25,314.21 835.84,314.50 836.42,314.80 837.01,315.10 837.59,315.41 838.18,315.71 838.77,316.02 839.35,316.32 839.94,316.62 840.52,316.92 841.11,317.21 841.70,317.50 842.28,317.78 842.87,318.05 843.45,318.32 844.04,318.57 844.63,318.82 845.21,319.06 845.80,319.29 846.38,319.51 846.97,319.71 847.56,319.91 848.14,320.10 848.73,320.27 849.31,320.43 849.90,320.58 850.49,320.72 851.07,320.85 851.66,320.97 852.24,321.07 852.83,321.17 853.42,321.25 854.00,321.32 854.59,321.38 855.17,321.44 855.76,321.48 856.35,321.51 856.93,321.53 857.52,321.55 858.10,321.55 858.69,321.55 859.28,321.54 859.86,321.52 860.45,321.50 861.03,321.47 861.62,321.43 862.21,321.39 862.79,321.34 863.38,321.29 863.96,321.23 864.55,321.17 865.14,321.10 865.72,321.04 866.31,320.97 866.89,320.90 867.48,320.82 868.07,320.75 868.65,320.67 869.24,320.59 869.82,320.52 870.41,320.44 871.00,320.36 871.58,320.29 872.17,320.21 872.75,320.13 873.34,320.06 873.93,319.99 874.51,319.92 875.10,319.85 875.68,319.78 876.27,319.72 876.86,319.65 877.44,319.60 878.03,319.54 878.61,319.48 879.20,319.43 879.79,319.38 880.37,319.34 880.96,319.29 881.54,319.25 882.13,319.21 882.72,319.18 883.30,319.15 883.89,319.12 884.47,319.09 885.06,319.07 885.65,319.05 886.23,319.03 886.82,319.02 887.40,319.01 887.99,319.00 888.58,318.99 889.16,318.98 889.75,318.98 890.33,318.98 890.92,318.98 891.51,318.98 892.09,318.99 892.68,319.00 893.26,319.00 893.85,319.01 894.44,319.02 895.02,319.04 895.61,319.05 896.19,319.07 896.78,319.08 897.37,319.10 897.95,319.11 898.54,319.13 899.12,319.15 899.71,319.17 900.30,319.19 900.88,319.21 901.47,319.23 902.05,319.25 902.64,319.27 903.23,319.29 903.81,319.31 904.40,319.33 904.98,319.34 905.57,319.36 906.16,319.38 906.74,319.40 907.33,319.42 907.91,319.43 908.50,319.45 909.09,319.46 909.67,319.48 910.26,319.49 910.84,319.51 911.43,319.52 912.02,319.53 912.60,319.54 913.19,319.56 913.77,319.57 914.36,319.57 914.95,319.58 915.53,319.59 916.12,319.60 916.70,319.60 917.29,319.61 917.88,319.62 918.46,319.62 919.05,319.62 919.63,319.63 920.22,319.63 920.81,319.63 921.39,319.63 921.98,319.63 922.56,319.63 923.15,319.63 923.74,319.63 924.32,319.63 924.91,319.63 925.49,319.63 926.08,319.62 926.67,319.62 927.25,319.62 927.84,319.61 928.42,319.61 929.01,319.61 929.60,319.60 930.18,319.60 930.77,319.59 931.35,319.59 931.94,319.58 932.53,319.58 933.11,319.57 933.70,319.57 934.28,319.56 934.87,319.56 935.46,319.55 936.04,319.55 936.63,319.54 937.21,319.54 937.80,319.53 938.39,319.53 938.97,319.52 939.56,319.52 940.14,319.52 940.73,319.51 941.32,319.51 941.90,319.50 942.49,319.50 943.07,319.50 943.66,319.49 944.25,319.49 944.83,319.49 945.42,319.49 946.00,319.48 946.59,319.48 947.18,319.48 947.76,319.48 948.35,319.47 948.93,319.47 949.52,319.47 950.11,319.47 950.69,319.47 951.28,319.47 951.86,319.47 952.45,319.47 953.04,319.47 953.62,319.47 954.21,319.47 954.79,319.47 955.38,319.47 955.97,319.47 956.55,319.47 957.14,319.47 957.72,319.47 958.31,319.47 958.90,319.47 959.48,319.47 960.07,319.47 960.65,319.47 961.24,319.47 961.83,319.47 962.41,319.48 963.00,319.48 963.58,319.48 964.17,319.48 964.76,319.48 965.34,319.48 965.93,319.48 966.51,319.48 967.10,319.49 967.69,319.49 968.27,319.49 968.86,319.49 969.44,319.49 970.03,319.49 970.62,319.49 971.20,319.49 971.79,319.50 972.37,319.50 972.96,319.50 973.55,319.50 974.13,319.50 974.72,319.50 975.30,319.50 975.89,319.50 976.48,319.50 977.06,319.50 977.65,319.50 978.23,319.50 978.82,319.51 979.41,319.51 979.99,319.51 980.58,319.51 981.16,319.51 981.75,319.51 982.34,319.51 982.92,319.51 983.51,319.51 984.09,319.51 984.68,319.51 985.27,319.51 985.85,319.51 986.44,319.51 987.02,319.51 987.61,319.51 988.20,319.51 988.78,319.51 989.37,319.51 989.95,319.51 990.54,319.51 991.13,319.51 991.71,319.51 992.30,319.51 992.88,319.51 993.47,319.51 994.06,319.51 994.64,319.51 995.23,319.51 995.81,319.51 996.40,319.51 996.99,319.50 997.57,319.50 998.16,319.50 998.74,319.50 999.33,319.50 999.92,319.50 1000.50,319.50 1001.09,319.50 1001.67,319.50 1002.26,319.50 1002.85,319.50 1003.43,319.50 1004.02,319.50 1004.60,319.50 1005.19,319.50 1005.78,319.50 1006.36,319.50 1006.95,319.50 1007.53,319.50 1008.12,319.50 1008.71,319.50 1009.29,319.50 1009.88,319.50 1010.46,319.50 1011.05,319.50 1011.64,319.50 1012.22,319.50 1012.81,319.50 1013.39,319.50 1013.98,319.50 1014.57,319.50 1015.15,319.50 1015.74,319.50 1016.32,319.50 1016.91,319.50 1017.50,319.50 1018.08,319.50 1018.67,319.50 1019.25,319.50 1019.84,319.50 1020.43,319.50 1021.01,319.50 1021.60,319.50 1022.18,319.50 1022.77,319.50 1023.36,319.50 1023.94,319.50 1024.53,319.50 1025.11,319.50 1025.70,319.50 1026.29,319.50 1026.87,319.50 1027.46,319.50 1028.04,319.50 1028.63,319.50 1029.22,319.50 1029.80,319.50 1030.39,319.50 1030.97,319.50 1031.56,319.50 1032.15,319.50 1032.73,319.50 1033.32,319.50 1033.90,319.50 1034.49,319.50 1035.08,319.50 1035.66,319.50 1036.25,319.50 1036.83,319.50 1037.42,319.50 1038.01,319.50 1038.59,319.50 1039.18,319.50 1039.76,319.50 1040.35,319.50 1040.94,319.50 1041.52,319.50 1042.11,319.50 1042.69,319.50 1043.28,319.50 1043.87,319.50 1044.45,319.50 1045.04,319.50 1045.62,319.50 1046.21,319.50 1046.80,319.50 1047.38,319.50 1047.97,319.50 1048.55,319.50 1049.14,319.50 1049.73,319.50 1050.31,319.50 1050.90,319.50 1051.48,319.50 1052.07,319.50 1052.66,319.50 1053.24,319.50 1053.83,319.50 1054.41,319.50 1055.00,319.50 1055.59,319.50 1056.17,319.50 1056.76,319.50 1057.34,319.50 1057.93,319.50 1058.52,319.50 1059.10,319.50 1059.69,319.50 1060.27,319.50 1060.86,319.50 1061.45,319.50 1062.03,319.50 1062.62,319.50 1063.20,319.50 1063.79,319.50 1064.38,319.50 1064.96,319.50 1065.55,319.50 1066.13,319.50 1066.72,319.50 1067.31,319.50 1067.89,319.50 1068.48,319.50 1069.06,319.50 1069.65,319.50 1070.24,319.50 1070.82,319.50 1071.41,319.50 1071.99,319.50 1072.58,319.50 1073.17,319.50 1073.75,319.50 1074.34,319.50 1074.92,319.50 1075.51,319.50 1076.10,319.50 1076.68,319.50 1077.27,319.50 1077.85,319.50 1078.44,319.50 1079.03,319.50 1079.61,319.50 1080.20,319.50 1080.78,319.50 1081.37,319.50 1081.96,319.50 1082.54,319.50 1083.13,319.50 1083.71,319.50 1084.30,319.50 1084.89,319.50 1085.47,319.50 1086.06,319.50 1086.64,319.50 1087.23,319.50 1087.82,319.50 1088.40,319.50 1088.99,319.50 1089.57,319.50 1090.16,319.50 1090.75,319.50 1091.33,319.50 1091.92,319.50 1092.50,319.50 1093.09,319.50 1093.68,319.50 1094.26,319.50 1094.85,319.50 1095.43,319.50 1096.02,319.50 1096.61,319.50 1097.19,319.50 1097.78,319.50 1098.36,319.50 1098.95,319.50 1099.54,319.50 1100.12,319.50 1100.71,319.50 1101.29,319.50 1101.88,319.50 1102.47,319.50 1103.05,319.50 1103.64,319.50 1104.22,319.50 1104.81,319.50 1105.40,319.50 1105.98,319.50 1106.57,319.50 1107.15,319.50 1107.74,319.50 1108.33,319.50 1108.91,319.50 1109.50,319.50 1110.08,319.50 1110.67,319.50 1111.26,319.50 1111.84,319.50 1112.43,319.50 1113.01,319.50 1113.60,319.50 1114.19,319.50 1114.77,319.50 1115.36,319.50 1115.94,319.50 1116.53,319.50 1117.12,319.50 1117.70,319.50 1118.29,319.50 1118.87,319.50 1119.46,319.50 1120.05,319.50 1120.63,319.50 1121.22,319.50 1121.80,319.50 1122.39,319.50 1122.98,319.50 1123.56,319.50 1124.15,319.50 1124.73,319.50 1125.32,319.50 1125.91,319.50 1126.49,319.50 1127.08,319.50 1127.66,319.50 1128.25,319.50 1128.84,319.50 1129.42,319.50 1130.01,319.50 1130.59,319.50 1131.18,319.50 1131.77,319.50 1132.35,319.50 1132.94,319.50 1133.52,319.50 1134.11,319.50 1134.70,319.50 1135.28,319.50 1135.87,319.50 1136.45,319.50 1137.04,319.50 1137.63,319.50 1138.21,319.50 1138.80,319.50 1139.38,319.50 1139.97,319.50 1140.56,319.50 1141.14,319.50 1141.73,319.50 1142.31,319.50 1142.90,319.50 1143.49,319.50 1144.07,319.50 1144.66,319.50 1145.24,319.50 1145.83,319.50 1146.42,319.50 1147.00,319.50 1147.59,319.50 1148.17,319.50 1148.76,319.50 1149.35,319.50 1149.93,319.50 1150.52,319.50 1151.10,319.50 1151.69,319.50 1152.28,319.50 1152.86,319.50 1153.45,319.50 1154.03,319.50 1154.62,319.50 1155.21,319.50 1155.79,319.50 1156.38,319.50 1156.96,319.50 1157.55,319.50 1158.14,319.50 1158.72,319.50 1159.31,319.50 1159.89,319.50 1160.48,319.50 1161.07,319.50 1161.65,319.50 1162.24,319.50 1162.82,319.50 1163.41,319.50 1164.00,319.50 1164.58,319.50 1165.17,319.50 1165.75,319.50 1166.34,319.50 1166.93,319.50 1167.51,319.50 1168.10,319.50 1168.68,319.50 1169.27,319.50 1169.86,319.50 1170.44,319.50 1171.03,319.50 1171.61,319.50 1172.20,319.50 1172.79,319.50 1173.37,319.50 1173.96,319.50 1174.54,319.50 1175.13,319.50 1175.72,319.50 1176.30,319.50 1176.89,319.50 1177.47,319.50 1178.06,319.50 1178.65,319.50 1179.23,319.50 1179.82,319.50 1180.40,319.50 1180.99,319.50 1181.58,319.50 1182.16,319.50 1182.75,319.50 1183.33,319.50 1183.92,319.50 1184.51,319.50 1185.09,319.50 1185.68,319.50 1186.26,319.50 1186.85,319.50 1187.44,319.50 1188.02,319.50 1188.61,319.50 1189.19,319.50 1189.78,319.50 1190.37,319.50 1190.95,319.50 1191.54,319.50 1192.12,319.50 1192.71,319.50 1193.30,319.50 1193.88,319.50 1194.47,319.50 1195.05,319.50 1195.64,319.50 1196.23,319.50 1196.81,319.50 1197.40,319.50 1197.98,319.50 1198.57,319.50 1199.16,319.50 1199.74,319.50 1200.33,319.50 1200.91,319.50 1201.50,319.50 1202.09,319.50 1202.67,319.50 1203.26,319.50 1203.84,319.50 1204.43,319.50 1205.02,319.50 1205.60,319.50 1206.19,319.50 1206.77,319.50 1207.36,319.50 1207.95,319.50 1208.53,319.50 1209.12,319.50 1209.70,319.50 1210.29,319.50 1210.88,319.50 1211.46,319.50 1212.05,319.50 1212.63,319.50 1213.22,319.50 1213.81,319.50 1214.39,319.50 1214.98,319.50 1215.56,319.50 1216.15,319.50 1216.74,319.50 1217.32,319.50 1217.91,319.50 1218.49,319.50 1219.08,319.50 1219.67,319.50 1220.25,319.50 1220.84,319.50 1221.42,319.50 1222.01,319.50 1222.60,319.50 1223.18,319.50 1223.77,319.50 1224.35,319.50 1224.94,319.50 1225.53,319.50 1226.11,319.50 1226.70,319.50 1227.28,319.50 1227.87,319.50 1228.46,319.50 1229.04,319.50 1229.63,319.50 1230.21,319.50 1230.80,319.50 1231.39,319.50 1231.97,319.50 1232.56,319.50 1233.14,319.50 1233.73,319.50 1234.32,319.50 1234.90,319.50 1235.49,319.50 1236.07,319.50 1236.66,319.50 1237.25,319.50 1237.83,319.50 1238.42,319.50 1239.00,319.50 1239.59,319.50 1240.18,319.50 1240.76,319.50 1241.35,319.50 1241.93,319.50 1242.52,319.50 1243.11,319.50 1243.69,319.50 1244.28,319.50 1244.86,319.50 1245.45,319.50 1246.04,319.50 1246.62,319.50 1247.21,319.50 1247.79,319.50 1248.38,319.50 1248.97,319.50 1249.55,319.50 1250.14,319.50 1250.72,319.50 1251.31,319.50 1251.90,319.50 1252.48,319.50 1253.07,319.50 1253.65,319.50 1254.24,319.50 1254.83,319.50 1255.41,319.50 1256.00,319.50 1256.58,319.50 1257.17,319.50 1257.76,319.50 1258.34,319.50 1258.93,319.50 1259.51,319.50 1260.10,319.50 1260.69,319.50 1261.27,319.50 1261.86,319.50 1262.44,319.50 1263.03,319.50 1263.62,319.50 1264.20,319.50 1264.79,319.50 1265.37,319.50 1265.96,319.50 1266.55,319.50 1267.13,319.50 1267.72,319.50 1268.30,319.50 1268.89,319.50 1269.48,319.50 1270.06,319.50 1270.65,319.50 1271.23,319.50 1271.82,319.50 1272.41,319.50 1272.99,319.50 1273.58,319.50 1274.16,319.50 1274.75,319.50 1275.34,319.50 1275.92,319.50 1276.51,319.50 1277.09,319.50 1277.68,319.50 1278.27,319.50 1278.85,319.50 1279.44,319.50 1280.02,319.50 1280.61,319.50 1281.20,319.50 1281.78,319.50 1282.37,319.50 1282.95,319.50 1283.54,319.50 1284.13,319.50 1284.71,319.50 1285.30,319.50 1285.88,319.50 1286.47,319.50 1287.06,319.50 1287.64,319.50 1288.23,319.50 1288.81,319.50 1289.40,319.50 1289.99,319.50 1290.57,319.50 1291.16,319.50 1291.74,319.50 1292.33,319.50 1292.92,319.50 1293.50,319.50 1294.09,319.50 1294.67,319.50 1295.26,319.50 1295.85,319.50 1296.43,319.50 1297.02,319.50 1297.60,319.50 1298.19,319.50 1298.78,319.50 1299.36,319.50 1299.95,319.50 1300.53,319.50 1301.12,319.50 1301.71,319.50 1302.29,319.50 1302.88,319.50 1303.46,319.50 1304.05,319.50 1304.64,319.50 1305.22,319.50 1305.81,319.50 1306.39,319.50 1306.98,319.50 1307.57,319.50 1308.15,319.50 1308.74,319.50 1309.32,319.50 1309.91,319.50 1310.50,319.50 1311.08,319.50 1311.67,319.50 1312.25,319.50 1312.84,319.50 1313.43,319.50 1314.01,319.50 1314.60,319.50 1315.18,319.50 1315.77,319.50 1316.36,319.50 1316.94,319.50 1317.53,319.50 1318.11,319.50 1318.70,319.50 1319.29,319.50 1319.87,319.50 1320.46,319.50 1321.04,319.50 1321.63,319.50 1322.22,319.50 1322.80,319.50 1323.39,319.50 1323.97,319.50 1324.56,319.50 1325.15,319.50 1325.73,319.50 1326.32,319.50 1326.90,319.50 1327.49,319.50 1328.08,319.50 1328.66,319.50 1329.25,319.50 1329.83,319.50 1330.42,319.50 1331.01,319.50 1331.59,319.50 1332.18,319.50 1332.76,319.50 1333.35,319.50 1333.94,319.50 1334.52,319.50 1335.11,319.50 1335.69,319.50 1336.28,319.50 1336.87,319.50 1337.45,319.50 1338.04,319.50 1338.62,319.50 1339.21,319.50 1339.80,319.50 1340.38,319.50 1340.97,319.50 1341.55,319.50 1342.14,319.50 1342.73,319.50 1343.31,319.50 1343.90,319.50 1344.48,319.50 1345.07,319.50 1345.66,319.50 1346.24,319.50 1346.83,319.50 1347.41,319.50 1348.00,319.50 "/>
<text x="759.00" y="471.00" class="axisLabel">0</text>
<text x="1328.00" y="471.00" class="axisLabel">20.0</text>
<rect x="40.00" y="507.00" width="648.00" height="353.00" class="panel"/>
<text x="52.00" y="531.00" class="panelTitle">Critically Damped (b = b_c)</text>
<text x="52.00" y="551.00" class="panelMeta">b = 6.264184 kg/s (b / b_c = 1.000)</text>
<line x1="90.00" y1="595.25" x2="676.00" y2="595.25" class="grid"/>
<line x1="90.00" y1="683.50" x2="676.00" y2="683.50" class="grid"/>
<line x1="90.00" y1="771.75" x2="676.00" y2="771.75" class="grid"/>
<line x1="207.20" y1="561.00" x2="207.20" y2="832.00" class="grid"/>
<line x1="324.40" y1="561.00" x2="324.40" y2="832.00" class="grid"/>
<line x1="441.60" y1="561.00" x2="441.60" y2="832.00" class="grid"/>
<line x1="558.80" y1="561.00" x2="558.80" y2="832.00" class="grid"/>
<line x1="90.00" y1="683.50" x2="676.00" y2="683.50" class="axis"/>
<line x1="90.00" y1="561.00" x2="90.00" y2="832.00" class="axis"/>
<text x="48.00" y="577.00" class="axisLabel">theta (rad)</text>
<text x="644.00" y="850.00" class="axisLabel">t (s)</text>
<text x="50.00" y="565.00" class="axisLabel">+0.324</text>
<text x="68.00" y="687.50" class="axisLabel">0</text>
<text x="50.00" y="830.00" class="axisLabel">-0.324</text>
<polyline class="curve" stroke="#ca8a04" points="90.00,571.04 90.59,571.27 91.17,571.94 91.76,572.99 92.34,574.38 92.93,576.05 93.52,577.96 94.10,580.09 94.69,582.40 95.27,584.85 95.86,587.43 96.45,590.11 97.03,592.86 97.62,595.67 98.20,598.53 98.79,601.40 99.38,604.29 99.96,607.18 100.55,610.06 101.13,612.92 101.72,615.75 102.31,618.54 102.89,621.30 103.48,624.00 104.06,626.66 104.65,629.26 105.24,631.80 105.82,634.28 106.41,636.70 106.99,639.05 107.58,641.34 108.17,643.56 108.75,645.72 109.34,647.80 109.92,649.83 110.51,651.78 111.10,653.67 111.68,655.50 112.27,657.26 112.85,658.96 113.44,660.60 114.03,662.18 114.61,663.70 115.20,665.16 115.78,666.56 116.37,667.91 116.96,669.20 117.54,670.45 118.13,671.64 118.71,672.79 119.30,673.88 119.89,674.93 120.47,675.94 121.06,676.91 121.64,677.83 122.23,678.71 122.82,679.56 123.40,680.36 123.99,681.14 124.57,681.87 125.16,682.58 125.75,683.25 126.33,683.89 126.92,684.51 127.50,685.09 128.09,685.65 128.68,686.18 129.26,686.69 129.85,687.18 130.43,687.64 131.02,688.08 131.61,688.50 132.19,688.90 132.78,689.28 133.36,689.64 133.95,689.99 134.54,690.31 135.12,690.63 135.71,690.92 136.29,691.21 136.88,691.48 137.47,691.73 138.05,691.97 138.64,692.21 139.22,692.43 139.81,692.64 140.40,692.83 140.98,693.02 141.57,693.20 142.15,693.37 142.74,693.53 143.33,693.69 143.91,693.83 144.50,693.97 145.08,694.10 145.67,694.23 146.26,694.35 146.84,694.46 147.43,694.57 148.01,694.67 148.60,694.77 149.19,694.86 149.77,694.94 150.36,695.03 150.94,695.10 151.53,695.18 152.12,695.25 152.70,695.31 153.29,695.38 153.87,695.44 154.46,695.49 155.05,695.55 155.63,695.60 156.22,695.65 156.80,695.69 157.39,695.73 157.98,695.78 158.56,695.81 159.15,695.85 159.73,695.89 160.32,695.92 160.91,695.95 161.49,695.98 162.08,696.01 162.66,696.03 163.25,696.06 163.84,696.08 164.42,696.11 165.01,696.13 165.59,696.15 166.18,696.17 166.77,696.18 167.35,696.20 167.94,696.22 168.52,696.23 169.11,696.25 169.70,696.26 170.28,696.27 170.87,696.29 171.45,696.30 172.04,696.31 172.63,696.32 173.21,696.33 173.80,696.34 174.38,696.35 174.97,696.36 175.56,696.36 176.14,696.37 176.73,696.38 177.31,696.39 177.90,696.39 178.49,696.40 179.07,696.40 179.66,696.41 180.24,696.41 180.83,696.42 181.42,696.42 182.00,696.43 182.59,696.43 183.17,696.44 183.76,696.44 184.35,696.44 184.93,696.45 185.52,696.45 186.10,696.45 186.69,696.45 187.28,696.46 187.86,696.46 188.45,696.46 189.03,696.46 189.62,696.47 190.21,696.47 190.79,696.47 191.38,696.47 191.96,696.47 192.55,696.47 193.14,696.48 193.72,696.48 194.31,696.48 194.89,696.48 195.48,696.48 196.07,696.48 196.65,696.48 197.24,696.48 197.82,696.48 198.41,696.49 199.00,696.49 199.58,696.49 200.17,696.49 200.75,696.49 201.34,696.49 201.93,696.49 202.51,696.49 203.10,696.49 203.68,696.49 204.27,696.49 204.86,696.49 205.44,696.49 206.03,696.49 206.61,696.49 207.20,696.49 207.79,696.49 208.37,696.49 208.96,696.49 209.54,696.50 210.13,696.50 210.72,696.50 211.30,696.50 211.89,696.50 212.47,696.50 213.06,696.50 213.65,696.50 214.23,696.50 214.82,696.50 215.40,696.50 215.99,696.50 216.58,696.50 217.16,696.50 217.75,696.50 218.33,696.50 218.92,696.50 219.51,696.50 220.09,696.50 220.68,696.50 221.26,696.50 221.85,696.50 222.44,696.50 223.02,696.50 223.61,696.50 224.19,696.50 224.78,696.50 225.37,696.50 225.95,696.50 226.54,696.50 227.12,696.50 227.71,696.50 228.30,696.50 228.88,696.50 229.47,696.50 230.05,696.50 230.64,696.50 231.23,696.50 231.81,696.50 232.40,696.50 232.98,696.50 233.57,696.50 234.16,696.50 234.74,696.50 235.33,696.50 235.91,696.50 236.50,696.50 237.09,696.50 237.67,696.50 238.26,696.50 238.84,696.50 239.43,696.50 240.02,696.50 240.60,696.50 241.19,696.50 241.77,696.50 242.36,696.50 242.95,696.50 243.53,696.50 244.12,696.50 244.70,696.50 245.29,696.50 245.88,696.50 246.46,696.50 247.05,696.50 247.63,696.50 248.22,696.50 248.81,696.50 249.39,696.50 249.98,696.50 250.56,696.50 251.15,696.50 251.74,696.50 252.32,696.50 252.91,696.50 253.49,696.50 254.08,696.50 254.67,696.50 255.25,696.50 255.84,696.50 256.42,696.50 257.01,696.50 257.60,696.50 258.18,696.50 258.77,696.50 259.35,696.50 259.94,696.50 260.53,696.50 261.11,696.50 261.70,696.50 262.28,696.50 262.87,696.50 263.46,696.50 264.04,696.50 264.63,696.50 265.21,696.50 265.80,696.50 266.39,696.50 266.97,696.50 267.56,696.50 268.14,696.50 268.73,696.50 269.32,696.50 269.90,696.50 270.49,696.50 271.07,696.50 271.66,696.50 272.25,696.50 272.83,696.50 273.42,696.50 274.00,696.50 274.59,696.50 275.18,696.50 275.76,696.50 276.35,696.50 276.93,696.50 277.52,696.50 278.11,696.50 278.69,696.50 279.28,696.50 279.86,696.50 280.45,696.50 281.04,696.50 281.62,696.50 282.21,696.50 282.79,696.50 283.38,696.50 283.97,696.50 284.55,696.50 285.14,696.50 285.72,696.50 286.31,696.50 286.90,696.50 287.48,696.50 288.07,696.50 288.65,696.50 289.24,696.50 289.83,696.50 290.41,696.50 291.00,696.50 291.58,696.50 292.17,696.50 292.76,696.50 293.34,696.50 293.93,696.50 294.51,696.50 295.10,696.50 295.69,696.50 296.27,696.50 296.86,696.50 297.44,696.50 298.03,696.50 298.62,696.50 299.20,696.50 299.79,696.50 300.37,696.50 300.96,696.50 301.55,696.50 302.13,696.50 302.72,696.50 303.30,696.50 303.89,696.50 304.48,696.50 305.06,696.50 305.65,696.50 306.23,696.50 306.82,696.50 307.41,696.50 307.99,696.50 308.58,696.50 309.16,696.50 309.75,696.50 310.34,696.50 310.92,696.50 311.51,696.50 312.09,696.50 312.68,696.50 313.27,696.50 313.85,696.50 314.44,696.50 315.02,696.50 315.61,696.50 316.20,696.50 316.78,696.50 317.37,696.50 317.95,696.50 318.54,696.50 319.13,696.50 319.71,696.50 320.30,696.50 320.88,696.50 321.47,696.50 322.06,696.50 322.64,696.50 323.23,696.50 323.81,696.50 324.40,696.50 324.99,696.50 325.57,696.50 326.16,696.50 326.74,696.50 327.33,696.50 327.92,696.50 328.50,696.50 329.09,696.50 329.67,696.50 330.26,696.50 330.85,696.50 331.43,696.50 332.02,696.50 332.60,696.50 333.19,696.50 333.78,696.50 334.36,696.50 334.95,696.50 335.53,696.50 336.12,696.50 336.71,696.50 337.29,696.50 337.88,696.50 338.46,696.50 339.05,696.50 339.64,696.50 340.22,696.50 340.81,696.50 341.39,696.50 341.98,696.50 342.57,696.50 343.15,696.50 343.74,696.50 344.32,696.50 344.91,696.50 345.50,696.50 346.08,696.50 346.67,696.50 347.25,696.50 347.84,696.50 348.43,696.50 349.01,696.50 349.60,696.50 350.18,696.50 350.77,696.50 351.36,696.50 351.94,696.50 352.53,696.50 353.11,696.50 353.70,696.50 354.29,696.50 354.87,696.50 355.46,696.50 356.04,696.50 356.63,696.50 357.22,696.50 357.80,696.50 358.39,696.50 358.97,696.50 359.56,696.50 360.15,696.50 360.73,696.50 361.32,696.50 361.90,696.50 362.49,696.50 363.08,696.50 363.66,696.50 364.25,696.50 364.83,696.50 365.42,696.50 366.01,696.50 366.59,696.50 367.18,696.50 367.76,696.50 368.35,696.50 368.94,696.50 369.52,696.50 370.11,696.50 370.69,696.50 371.28,696.50 371.87,696.50 372.45,696.50 373.04,696.50 373.62,696.50 374.21,696.50 374.80,696.50 375.38,696.50 375.97,696.50 376.55,696.50 377.14,696.50 377.73,696.50 378.31,696.50 378.90,696.50 379.48,696.50 380.07,696.50 380.66,696.50 381.24,696.50 381.83,696.50 382.41,696.50 383.00,696.50 383.59,696.50 384.17,696.50 384.76,696.50 385.34,696.50 385.93,696.50 386.52,696.50 387.10,696.50 387.69,696.50 388.27,696.50 388.86,696.50 389.45,696.50 390.03,696.50 390.62,696.50 391.20,696.50 391.79,696.50 392.38,696.50 392.96,696.50 393.55,696.50 394.13,696.50 394.72,696.50 395.31,696.50 395.89,696.50 396.48,696.50 397.06,696.50 397.65,696.50 398.24,696.50 398.82,696.50 399.41,696.50 399.99,696.50 400.58,696.50 401.17,696.50 401.75,696.50 402.34,696.50 402.92,696.50 403.51,696.50 404.10,696.50 404.68,696.50 405.27,696.50 405.85,696.50 406.44,696.50 407.03,696.50 407.61,696.50 408.20,696.50 408.78,696.50 409.37,696.50 409.96,696.50 410.54,696.50 411.13,696.50 411.71,696.50 412.30,696.50 412.89,696.50 413.47,696.50 414.06,696.50 414.64,696.50 415.23,696.50 415.82,696.50 416.40,696.50 416.99,696.50 417.57,696.50 418.16,696.50 418.75,696.50 419.33,696.50 419.92,696.50 420.50,696.50 421.09,696.50 421.68,696.50 422.26,696.50 422.85,696.50 423.43,696.50 424.02,696.50 424.61,696.50 425.19,696.50 425.78,696.50 426.36,696.50 426.95,696.50 427.54,696.50 428.12,696.50 428.71,696.50 429.29,696.50 429.88,696.50 430.47,696.50 431.05,696.50 431.64,696.50 432.22,696.50 432.81,696.50 433.40,696.50 433.98,696.50 434.57,696.50 435.15,696.50 435.74,696.50 436.33,696.50 436.91,696.50 437.50,696.50 438.08,696.50 438.67,696.50 439.26,696.50 439.84,696.50 440.43,696.50 441.01,696.50 441.60,696.50 442.19,696.50 442.77,696.50 443.36,696.50 443.94,696.50 444.53,696.50 445.12,696.50 445.70,696.50 446.29,696.50 446.87,696.50 447.46,696.50 448.05,696.50 448.63,696.50 449.22,696.50 449.80,696.50 450.39,696.50 450.98,696.50 451.56,696.50 452.15,696.50 452.73,696.50 453.32,696.50 453.91,696.50 454.49,696.50 455.08,696.50 455.66,696.50 456.25,696.50 456.84,696.50 457.42,696.50 458.01,696.50 458.59,696.50 459.18,696.50 459.77,696.50 460.35,696.50 460.94,696.50 461.52,696.50 462.11,696.50 462.70,696.50 463.28,696.50 463.87,696.50 464.45,696.50 465.04,696.50 465.63,696.50 466.21,696.50 466.80,696.50 467.38,696.50 467.97,696.50 468.56,696.50 469.14,696.50 469.73,696.50 470.31,696.50 470.90,696.50 471.49,696.50 472.07,696.50 472.66,696.50 473.24,696.50 473.83,696.50 474.42,696.50 475.00,696.50 475.59,696.50 476.17,696.50 476.76,696.50 477.35,696.50 477.93,696.50 478.52,696.50 479.10,696.50 479.69,696.50 480.28,696.50 480.86,696.50 481.45,696.50 482.03,696.50 482.62,696.50 483.21,696.50 483.79,696.50 484.38,696.50 484.96,696.50 485.55,696.50 486.14,696.50 486.72,696.50 487.31,696.50 487.89,696.50 488.48,696.50 489.07,696.50 489.65,696.50 490.24,696.50 490.82,696.50 491.41,696.50 492.00,696.50 492.58,696.50 493.17,696.50 493.75,696.50 494.34,696.50 494.93,696.50 495.51,696.50 496.10,696.50 496.68,696.50 497.27,696.50 497.86,696.50 498.44,696.50 499.03,696.50 499.61,696.50 500.20,696.50 500.79,696.50 501.37,696.50 501.96,696.50 502.54,696.50 503.13,696.50 503.72,696.50 504.30,696.50 504.89,696.50 505.47,696.50 506.06,696.50 506.65,696.50 507.23,696.50 507.82,696.50 508.40,696.50 508.99,696.50 509.58,696.50 510.16,696.50 510.75,696.50 511.33,696.50 511.92,696.50 512.51,696.50 513.09,696.50 513.68,696.50 514.26,696.50 514.85,696.50 515.44,696.50 516.02,696.50 516.61,696.50 517.19,696.50 517.78,696.50 518.37,696.50 518.95,696.50 519.54,696.50 520.12,696.50 520.71,696.50 521.30,696.50 521.88,696.50 522.47,696.50 523.05,696.50 523.64,696.50 524.23,696.50 524.81,696.50 525.40,696.50 525.98,696.50 526.57,696.50 527.16,696.50 527.74,696.50 528.33,696.50 528.91,696.50 529.50,696.50 530.09,696.50 530.67,696.50 531.26,696.50 531.84,696.50 532.43,696.50 533.02,696.50 533.60,696.50 534.19,696.50 534.77,696.50 535.36,696.50 535.95,696.50 536.53,696.50 537.12,696.50 537.70,696.50 538.29,696.50 538.88,696.50 539.46,696.50 540.05,696.50 540.63,696.50 541.22,696.50 541.81,696.50 542.39,696.50 542.98,696.50 543.56,696.50 544.15,696.50 544.74,696.50 545.32,696.50 545.91,696.50 546.49,696.50 547.08,696.50 547.67,696.50 548.25,696.50 548.84,696.50 549.42,696.50 550.01,696.50 550.60,696.50 551.18,696.50 551.77,696.50 552.35,696.50 552.94,696.50 553.53,696.50 554.11,696.50 554.70,696.50 555.28,696.50 555.87,696.50 556.46,696.50 557.04,696.50 557.63,696.50 558.21,696.50 558.80,696.50 559.39,696.50 559.97,696.50 560.56,696.50 561.14,696.50 561.73,696.50 562.32,696.50 562.90,696.50 563.49,696.50 564.07,696.50 564.66,696.50 565.25,696.50 565.83,696.50 566.42,696.50 567.00,696.50 567.59,696.50 568.18,696.50 568.76,696.50 569.35,696.50 569.93,696.50 570.52,696.50 571.11,696.50 571.69,696.50 572.28,696.50 572.86,696.50 573.45,696.50 574.04,696.50 574.62,696.50 575.21,696.50 575.79,696.50 576.38,696.50 576.97,696.50 577.55,696.50 578.14,696.50 578.72,696.50 579.31,696.50 579.90,696.50 580.48,696.50 581.07,696.50 581.65,696.50 582.24,696.50 582.83,696.50 583.41,696.50 584.00,696.50 584.58,696.50 585.17,696.50 585.76,696.50 586.34,696.50 586.93,696.50 587.51,696.50 588.10,696.50 588.69,696.50 589.27,696.50 589.86,696.50 590.44,696.50 591.03,696.50 591.62,696.50 592.20,696.50 592.79,696.50 593.37,696.50 593.96,696.50 594.55,696.50 595.13,696.50 595.72,696.50 596.30,696.50 596.89,696.50 597.48,696.50 598.06,696.50 598.65,696.50 599.23,696.50 599.82,696.50 600.41,696.50 600.99,696.50 601.58,696.50 602.16,696.50 602.75,696.50 603.34,696.50 603.92,696.50 604.51,696.50 605.09,696.50 605.68,696.50 606.27,696.50 606.85,696.50 607.44,696.50 608.02,696.50 608.61,696.50 609.20,696.50 609.78,696.50 610.37,696.50 610.95,696.50 611.54,696.50 612.13,696.50 612.71,696.50 613.30,696.50 613.88,696.50 614.47,696.50 615.06,696.50 615.64,696.50 616.23,696.50 616.81,696.50 617.40,696.50 617.99,696.50 618.57,696.50 619.16,696.50 619.74,696.50 620.33,696.50 620.92,696.50 621.50,696.50 622.09,696.50 622.67,696.50 623.26,696.50 623.85,696.50 624.43,696.50 625.02,696.50 625.60,696.50 626.19,696.50 626.78,696.50 627.36,696.50 627.95,696.50 628.53,696.50 629.12,696.50 629.71,696.50 630.29,696.50 630.88,696.50 631.46,696.50 632.05,696.50 632.64,696.50 633.22,696.50 633.81,696.50 634.39,696.50 634.98,696.50 635.57,696.50 636.15,696.50 636.74,696.50 637.32,696.50 637.91,696.50 638.50,696.50 639.08,696.50 639.67,696.50 640.25,696.50 640.84,696.50 641.43,696.50 642.01,696.50 642.60,696.50 643.18,696.50 643.77,696.50 644.36,696.50 644.94,696.50 645.53,696.50 646.11,696.50 646.70,696.50 647.29,696.50 647.87,696.50 648.46,696.50 649.04,696.50 649.63,696.50 650.22,696.50 650.80,696.50 651.39,696.50 651.97,696.50 652.56,696.50 653.15,696.50 653.73,696.50 654.32,696.50 654.90,696.50 655.49,696.50 656.08,696.50 656.66,696.50 657.25,696.50 657.83,696.50 658.42,696.50 659.01,696.50 659.59,696.50 660.18,696.50 660.76,696.50 661.35,696.50 661.94,696.50 662.52,696.50 663.11,696.50 663.69,696.50 664.28,696.50 664.87,696.50 665.45,696.50 666.04,696.50 666.62,696.50 667.21,696.50 667.80,696.50 668.38,696.50 668.97,696.50 669.55,696.50 670.14,696.50 670.73,696.50 671.31,696.50 671.90,696.50 672.48,696.50 673.07,696.50 673.66,696.50 674.24,696.50 674.83,696.50 675.41,696.50 676.00,696.50 "/>
<text x="87.00" y="848.00" class="axisLabel">0</text>
<text x="656.00" y="848.00" class="axisLabel">20.0</text>
<rect x="712.00" y="507.00" width="648.00" height="353.00" class="panel"/>
<text x="724.00" y="531.00" class="panelTitle">Overdamped (b > b_c)</text>
<text x="724.00" y="551.00" class="panelMeta">b = 13.781205 kg/s (b / b_c = 2.200)</text>
<line x1="762.00" y1="595.25" x2="1348.00" y2="595.25" class="grid"/>
<line x1="762.00" y1="683.50" x2="1348.00" y2="683.50" class="grid"/>
<line x1="762.00" y1="771.75" x2="1348.00" y2="771.75" class="grid"/>
<line x1="879.20" y1="561.00" x2="879.20" y2="832.00" class="grid"/>
<line x1="996.40" y1="561.00" x2="996.40" y2="832.00" class="grid"/>
<line x1="1113.60" y1="561.00" x2="1113.60" y2="832.00" class="grid"/>
<line x1="1230.80" y1="561.00" x2="1230.80" y2="832.00" class="grid"/>
<line x1="762.00" y1="683.50" x2="1348.00" y2="683.50" class="axis"/>
<line x1="762.00" y1="561.00" x2="762.00" y2="832.00" class="axis"/>
<text x="720.00" y="577.00" class="axisLabel">theta (rad)</text>
<text x="1316.00" y="850.00" class="axisLabel">t (s)</text>
<text x="722.00" y="565.00" class="axisLabel">+0.324</text>
<text x="740.00" y="687.50" class="axisLabel">0</text>
<text x="722.00" y="830.00" class="axisLabel">-0.324</text>
<polyline class="curve" stroke="#b91c1c" points="762.00,571.04 762.59,571.26 763.17,571.86 763.76,572.75 764.34,573.84 764.93,575.09 765.52,576.46 766.10,577.91 766.69,579.41 767.27,580.96 767.86,582.53 768.45,584.11 769.03,585.69 769.62,587.28 770.20,588.85 770.79,590.42 771.38,591.97 771.96,593.51 772.55,595.03 773.13,596.53 773.72,598.01 774.31,599.48 774.89,600.92 775.48,602.34 776.06,603.75 776.65,605.13 777.24,606.49 777.82,607.84 778.41,609.16 778.99,610.46 779.58,611.75 780.17,613.01 780.75,614.26 781.34,615.49 781.92,616.70 782.51,617.89 783.10,619.07 783.68,620.23 784.27,621.37 784.85,622.49 785.44,623.60 786.03,624.68 786.61,625.76 787.20,626.82 787.78,627.86 788.37,628.88 788.96,629.89 789.54,630.89 790.13,631.87 790.71,632.84 791.30,633.79 791.89,634.72 792.47,635.65 793.06,636.56 793.64,637.45 794.23,638.34 794.82,639.21 795.40,640.06 795.99,640.91 796.57,641.74 797.16,642.55 797.75,643.36 798.33,644.16 798.92,644.94 799.50,645.71 800.09,646.47 800.68,647.22 801.26,647.95 801.85,648.68 802.43,649.39 803.02,650.10 803.61,650.79 804.19,651.47 804.78,652.15 805.36,652.81 805.95,653.46 806.54,654.11 807.12,654.74 807.71,655.36 808.29,655.98 808.88,656.58 809.47,657.18 810.05,657.77 810.64,658.35 811.22,658.92 811.81,659.48 812.40,660.03 812.98,660.58 813.57,661.11 814.15,661.64 814.74,662.16 815.33,662.68 815.91,663.18 816.50,663.68 817.08,664.17 817.67,664.65 818.26,665.13 818.84,665.60 819.43,666.06 820.01,666.52 820.60,666.96 821.19,667.41 821.77,667.84 822.36,668.27 822.94,668.69 823.53,669.11 824.12,669.52 824.70,669.92 825.29,670.32 825.87,670.71 826.46,671.09 827.05,671.47 827.63,671.85 828.22,672.22 828.80,672.58 829.39,672.94 829.98,673.29 830.56,673.64 831.15,673.98 831.73,674.31 832.32,674.65 832.91,674.97 833.49,675.29 834.08,675.61 834.66,675.92 835.25,676.23 835.84,676.53 836.42,676.83 837.01,677.13 837.59,677.42 838.18,677.70 838.77,677.98 839.35,678.26 839.94,678.53 840.52,678.80 841.11,679.06 841.70,679.33 842.28,679.58 842.87,679.83 843.45,680.08 844.04,680.33 844.63,680.57 845.21,680.81 845.80,681.04 846.38,681.27 846.97,681.50 847.56,681.73 848.14,681.95 848.73,682.16 849.31,682.38 849.90,682.59 850.49,682.80 851.07,683.00 851.66,683.20 852.24,683.40 852.83,683.60 853.42,683.79 854.00,683.98 854.59,684.17 855.17,684.35 855.76,684.53 856.35,684.71 856.93,684.89 857.52,685.06 858.10,685.23 858.69,685.40 859.28,685.57 859.86,685.73 860.45,685.89 861.03,686.05 861.62,686.21 862.21,686.36 862.79,686.51 863.38,686.66 863.96,686.81 864.55,686.95 865.14,687.10 865.72,687.24 866.31,687.38 866.89,687.51 867.48,687.65 868.07,687.78 868.65,687.91 869.24,688.04 869.82,688.16 870.41,688.29 871.00,688.41 871.58,688.53 872.17,688.65 872.75,688.77 873.34,688.88 873.93,689.00 874.51,689.11 875.10,689.22 875.68,689.33 876.27,689.44 876.86,689.54 877.44,689.65 878.03,689.75 878.61,689.85 879.20,689.95 879.79,690.05 880.37,690.14 880.96,690.24 881.54,690.33 882.13,690.42 882.72,690.51 883.30,690.60 883.89,690.69 884.47,690.78 885.06,690.86 885.65,690.95 886.23,691.03 886.82,691.11 887.40,691.19 887.99,691.27 888.58,691.35 889.16,691.43 889.75,691.50 890.33,691.58 890.92,691.65 891.51,691.73 892.09,691.80 892.68,691.87 893.26,691.94 893.85,692.00 894.44,692.07 895.02,692.14 895.61,692.20 896.19,692.27 896.78,692.33 897.37,692.39 897.95,692.45 898.54,692.51 899.12,692.57 899.71,692.63 900.30,692.69 900.88,692.75 901.47,692.80 902.05,692.86 902.64,692.91 903.23,692.97 903.81,693.02 904.40,693.07 904.98,693.12 905.57,693.17 906.16,693.22 906.74,693.27 907.33,693.32 907.91,693.37 908.50,693.41 909.09,693.46 909.67,693.51 910.26,693.55 910.84,693.60 911.43,693.64 912.02,693.68 912.60,693.72 913.19,693.76 913.77,693.81 914.36,693.85 914.95,693.89 915.53,693.92 916.12,693.96 916.70,694.00 917.29,694.04 917.88,694.08 918.46,694.11 919.05,694.15 919.63,694.18 920.22,694.22 920.81,694.25 921.39,694.28 921.98,694.32 922.56,694.35 923.15,694.38 923.74,694.41 924.32,694.45 924.91,694.48 925.49,694.51 926.08,694.54 926.67,694.57 927.25,694.59 927.84,694.62 928.42,694.65 929.01,694.68 929.60,694.71 930.18,694.73 930.77,694.76 931.35,694.79 931.94,694.81 932.53,694.84 933.11,694.86 933.70,694.89 934.28,694.91 934.87,694.93 935.46,694.96 936.04,694.98 936.63,695.00 937.21,695.02 937.80,695.05 938.39,695.07 938.97,695.09 939.56,695.11 940.14,695.13 940.73,695.15 941.32,695.17 941.90,695.19 942.49,695.21 943.07,695.23 943.66,695.25 944.25,695.27 944.83,695.29 945.42,695.31 946.00,695.32 946.59,695.34 947.18,695.36 947.76,695.38 948.35,695.39 948.93,695.41 949.52,695.42 950.11,695.44 950.69,695.46 951.28,695.47 951.86,695.49 952.45,695.50 953.04,695.52 953.62,695.53 954.21,695.55 954.79,695.56 955.38,695.58 955.97,695.59 956.55,695.60 957.14,695.62 957.72,695.63 958.31,695.64 958.90,695.66 959.48,695.67 960.07,695.68 960.65,695.69 961.24,695.70 961.83,695.72 962.41,695.73 963.00,695.74 963.58,695.75 964.17,695.76 964.76,695.77 965.34,695.78 965.93,695.79 966.51,695.81 967.10,695.82 967.69,695.83 968.27,695.84 968.86,695.85 969.44,695.86 970.03,695.87 970.62,695.87 971.20,695.88 971.79,695.89 972.37,695.90 972.96,695.91 973.55,695.92 974.13,695.93 974.72,695.94 975.30,695.95 975.89,695.95 976.48,695.96 977.06,695.97 977.65,695.98 978.23,695.99 978.82,695.99 979.41,696.00 979.99,696.01 980.58,696.02 981.16,696.02 981.75,696.03 982.34,696.04 982.92,696.04 983.51,696.05 984.09,696.06 984.68,696.06 985.27,696.07 985.85,696.08 986.44,696.08 987.02,696.09 987.61,696.10 988.20,696.10 988.78,696.11 989.37,696.11 989.95,696.12 990.54,696.13 991.13,696.13 991.71,696.14 992.30,696.14 992.88,696.15 993.47,696.15 994.06,696.16 994.64,696.16 995.23,696.17 995.81,696.17 996.40,696.18 996.99,696.18 997.57,696.19 998.16,696.19 998.74,696.20 999.33,696.20 999.92,696.21 1000.50,696.21 1001.09,696.21 1001.67,696.22 1002.26,696.22 1002.85,696.23 1003.43,696.23 1004.02,696.24 1004.60,696.24 1005.19,696.24 1005.78,696.25 1006.36,696.25 1006.95,696.25 1007.53,696.26 1008.12,696.26 1008.71,696.27 1009.29,696.27 1009.88,696.27 1010.46,696.28 1011.05,696.28 1011.64,696.28 1012.22,696.29 1012.81,696.29 1013.39,696.29 1013.98,696.29 1014.57,696.30 1015.15,696.30 1015.74,696.30 1016.32,696.31 1016.91,696.31 1017.50,696.31 1018.08,696.32 1018.67,696.32 1019.25,696.32 1019.84,696.32 1020.43,696.33 1021.01,696.33 1021.60,696.33 1022.18,696.33 1022.77,696.34 1023.36,696.34 1023.94,696.34 1024.53,696.34 1025.11,696.35 1025.70,696.35 1026.29,696.35 1026.87,696.35 1027.46,696.35 1028.04,696.36 1028.63,696.36 1029.22,696.36 1029.80,696.36 1030.39,696.37 1030.97,696.37 1031.56,696.37 1032.15,696.37 1032.73,696.37 1033.32,696.38 1033.90,696.38 1034.49,696.38 1035.08,696.38 1035.66,696.38 1036.25,696.38 1036.83,696.39 1037.42,696.39 1038.01,696.39 1038.59,696.39 1039.18,696.39 1039.76,696.39 1040.35,696.40 1040.94,696.40 1041.52,696.40 1042.11,696.40 1042.69,696.40 1043.28,696.40 1043.87,696.40 1044.45,696.41 1045.04,696.41 1045.62,696.41 1046.21,696.41 1046.80,696.41 1047.38,696.41 1047.97,696.41 1048.55,696.42 1049.14,696.42 1049.73,696.42 1050.31,696.42 1050.90,696.42 1051.48,696.42 1052.07,696.42 1052.66,696.42 1053.24,696.43 1053.83,696.43 1054.41,696.43 1055.00,696.43 1055.59,696.43 1056.17,696.43 1056.76,696.43 1057.34,696.43 1057.93,696.43 1058.52,696.43 1059.10,696.44 1059.69,696.44 1060.27,696.44 1060.86,696.44 1061.45,696.44 1062.03,696.44 1062.62,696.44 1063.20,696.44 1063.79,696.44 1064.38,696.44 1064.96,696.44 1065.55,696.45 1066.13,696.45 1066.72,696.45 1067.31,696.45 1067.89,696.45 1068.48,696.45 1069.06,696.45 1069.65,696.45 1070.24,696.45 1070.82,696.45 1071.41,696.45 1071.99,696.45 1072.58,696.45 1073.17,696.46 1073.75,696.46 1074.34,696.46 1074.92,696.46 1075.51,696.46 1076.10,696.46 1076.68,696.46 1077.27,696.46 1077.85,696.46 1078.44,696.46 1079.03,696.46 1079.61,696.46 1080.20,696.46 1080.78,696.46 1081.37,696.46 1081.96,696.46 1082.54,696.46 1083.13,696.47 1083.71,696.47 1084.30,696.47 1084.89,696.47 1085.47,696.47 1086.06,696.47 1086.64,696.47 1087.23,696.47 1087.82,696.47 1088.40,696.47 1088.99,696.47 1089.57,696.47 1090.16,696.47 1090.75,696.47 1091.33,696.47 1091.92,696.47 1092.50,696.47 1093.09,696.47 1093.68,696.47 1094.26,696.47 1094.85,696.47 1095.43,696.47 1096.02,696.48 1096.61,696.48 1097.19,696.48 1097.78,696.48 1098.36,696.48 1098.95,696.48 1099.54,696.48 1100.12,696.48 1100.71,696.48 1101.29,696.48 1101.88,696.48 1102.47,696.48 1103.05,696.48 1103.64,696.48 1104.22,696.48 1104.81,696.48 1105.40,696.48 1105.98,696.48 1106.57,696.48 1107.15,696.48 1107.74,696.48 1108.33,696.48 1108.91,696.48 1109.50,696.48 1110.08,696.48 1110.67,696.48 1111.26,696.48 1111.84,696.48 1112.43,696.48 1113.01,696.48 1113.60,696.48 1114.19,696.48 1114.77,696.48 1115.36,696.48 1115.94,696.49 1116.53,696.49 1117.12,696.49 1117.70,696.49 1118.29,696.49 1118.87,696.49 1119.46,696.49 1120.05,696.49 1120.63,696.49 1121.22,696.49 1121.80,696.49 1122.39,696.49 1122.98,696.49 1123.56,696.49 1124.15,696.49 1124.73,696.49 1125.32,696.49 1125.91,696.49 1126.49,696.49 1127.08,696.49 1127.66,696.49 1128.25,696.49 1128.84,696.49 1129.42,696.49 1130.01,696.49 1130.59,696.49 1131.18,696.49 1131.77,696.49 1132.35,696.49 1132.94,696.49 1133.52,696.49 1134.11,696.49 1134.70,696.49 1135.28,696.49 1135.87,696.49 1136.45,696.49 1137.04,696.49 1137.63,696.49 1138.21,696.49 1138.80,696.49 1139.38,696.49 1139.97,696.49 1140.56,696.49 1141.14,696.49 1141.73,696.49 1142.31,696.49 1142.90,696.49 1143.49,696.49 1144.07,696.49 1144.66,696.49 1145.24,696.49 1145.83,696.49 1146.42,696.49 1147.00,696.49 1147.59,696.49 1148.17,696.49 1148.76,696.49 1149.35,696.49 1149.93,696.49 1150.52,696.49 1151.10,696.49 1151.69,696.49 1152.28,696.49 1152.86,696.49 1153.45,696.49 1154.03,696.49 1154.62,696.49 1155.21,696.49 1155.79,696.49 1156.38,696.49 1156.96,696.49 1157.55,696.49 1158.14,696.49 1158.72,696.50 1159.31,696.50 1159.89,696.50 1160.48,696.50 1161.07,696.50 1161.65,696.50 1162.24,696.50 1162.82,696.50 1163.41,696.50 1164.00,696.50 1164.58,696.50 1165.17,696.50 1165.75,696.50 1166.34,696.50 1166.93,696.50 1167.51,696.50 1168.10,696.50 1168.68,696.50 1169.27,696.50 1169.86,696.50 1170.44,696.50 1171.03,696.50 1171.61,696.50 1172.20,696.50 1172.79,696.50 1173.37,696.50 1173.96,696.50 1174.54,696.50 1175.13,696.50 1175.72,696.50 1176.30,696.50 1176.89,696.50 1177.47,696.50 1178.06,696.50 1178.65,696.50 1179.23,696.50 1179.82,696.50 1180.40,696.50 1180.99,696.50 1181.58,696.50 1182.16,696.50 1182.75,696.50 1183.33,696.50 1183.92,696.50 1184.51,696.50 1185.09,696.50 1185.68,696.50 1186.26,696.50 1186.85,696.50 1187.44,696.50 1188.02,696.50 1188.61,696.50 1189.19,696.50 1189.78,696.50 1190.37,696.50 1190.95,696.50 1191.54,696.50 1192.12,696.50 1192.71,696.50 1193.30,696.50 1193.88,696.50 1194.47,696.50 1195.05,696.50 1195.64,696.50 1196.23,696.50 1196.81,696.50 1197.40,696.50 1197.98,696.50 1198.57,696.50 1199.16,696.50 1199.74,696.50 1200.33,696.50 1200.91,696.50 1201.50,696.50 1202.09,696.50 1202.67,696.50 1203.26,696.50 1203.84,696.50 1204.43,696.50 1205.02,696.50 1205.60,696.50 1206.19,696.50 1206.77,696.50 1207.36,696.50 1207.95,696.50 1208.53,696.50 1209.12,696.50 1209.70,696.50 1210.29,696.50 1210.88,696.50 1211.46,696.50 1212.05,696.50 1212.63,696.50 1213.22,696.50 1213.81,696.50 1214.39,696.50 1214.98,696.50 1215.56,696.50 1216.15,696.50 1216.74,696.50 1217.32,696.50 1217.91,696.50 1218.49,696.50 1219.08,696.50 1219.67,696.50 1220.25,696.50 1220.84,696.50 1221.42,696.50 1222.01,696.50 1222.60,696.50 1223.18,696.50 1223.77,696.50 1224.35,696.50 1224.94,696.50 1225.53,696.50 1226.11,696.50 1226.70,696.50 1227.28,696.50 1227.87,696.50 1228.46,696.50 1229.04,696.50 1229.63,696.50 1230.21,696.50 1230.80,696.50 1231.39,696.50 1231.97,696.50 1232.56,696.50 1233.14,696.50 1233.73,696.50 1234.32,696.50 1234.90,696.50 1235.49,696.50 1236.07,696.50 1236.66,696.50 1237.25,696.50 1237.83,696.50 1238.42,696.50 1239.00,696.50 1239.59,696.50 1240.18,696.50 1240.76,696.50 1241.35,696.50 1241.93,696.50 1242.52,696.50 1243.11,696.50 1243.69,696.50 1244.28,696.50 1244.86,696.50 1245.45,696.50 1246.04,696.50 1246.62,696.50 1247.21,696.50 1247.79,696.50 1248.38,696.50 1248.97,696.50 1249.55,696.50 1250.14,696.50 1250.72,696.50 1251.31,696.50 1251.90,696.50 1252.48,696.50 1253.07,696.50 1253.65,696.50 1254.24,696.50 1254.83,696.50 1255.41,696.50 1256.00,696.50 1256.58,696.50 1257.17,696.50 1257.76,696.50 1258.34,696.50 1258.93,696.50 1259.51,696.50 1260.10,696.50 1260.69,696.50 1261.27,696.50 1261.86,696.50 1262.44,696.50 1263.03,696.50 1263.62,696.50 1264.20,696.50 1264.79,696.50 1265.37,696.50 1265.96,696.50 1266.55,696.50 1267.13,696.50 1267.72,696.50 1268.30,696.50 1268.89,696.50 1269.48,696.50 1270.06,696.50 1270.65,696.50 1271.23,696.50 1271.82,696.50 1272.41,696.50 1272.99,696.50 1273.58,696.50 1274.16,696.50 1274.75,696.50 1275.34,696.50 1275.92,696.50 1276.51,696.50 1277.09,696.50 1277.68,696.50 1278.27,696.50 1278.85,696.50 1279.44,696.50 1280.02,696.50 1280.61,696.50 1281.20,696.50 1281.78,696.50 1282.37,696.50 1282.95,696.50 1283.54,696.50 1284.13,696.50 1284.71,696.50 1285.30,696.50 1285.88,696.50 1286.47,696.50 1287.06,696.50 1287.64,696.50 1288.23,696.50 1288.81,696.50 1289.40,696.50 1289.99,696.50 1290.57,696.50 1291.16,696.50 1291.74,696.50 1292.33,696.50 1292.92,696.50 1293.50,696.50 1294.09,696.50 1294.67,696.50 1295.26,696.50 1295.85,696.50 1296.43,696.50 1297.02,696.50 1297.60,696.50 1298.19,696.50 1298.78,696.50 1299.36,696.50 1299.95,696.50 1300.53,696.50 1301.12,696.50 1301.71,696.50 1302.29,696.50 1302.88,696.50 1303.46,696.50 1304.05,696.50 1304.64,696.50 1305.22,696.50 1305.81,696.50 1306.39,696.50 1306.98,696.50 1307.57,696.50 1308.15,696.50 1308.74,696.50 1309.32,696.50 1309.91,696.50 1310.50,696.50 1311.08,696.50 1311.67,696.50 1312.25,696.50 1312.84,696.50 1313.43,696.50 1314.01,696.50 1314.60,696.50 1315.18,696.50 1315.77,696.50 1316.36,696.50 1316.94,696.50 1317.53,696.50 1318.11,696.50 1318.70,696.50 1319.29,696.50 1319.87,696.50 1320.46,696.50 1321.04,696.50 1321.63,696.50 1322.22,696.50 1322.80,696.50 1323.39,696.50 1323.97,696.50 1324.56,696.50 1325.15,696.50 1325.73,696.50 1326.32,696.50 1326.90,696.50 1327.49,696.50 1328.08,696.50 1328.66,696.50 1329.25,696.50 1329.83,696.50 1330.42,696.50 1331.01,696.50 1331.59,696.50 1332.18,696.50 1332.76,696.50 1333.35,696.50 1333.94,696.50 1334.52,696.50 1335.11,696.50 1335.69,696.50 1336.28,696.50 1336.87,696.50 1337.45,696.50 1338.04,696.50 1338.62,696.50 1339.21,696.50 1339.80,696.50 1340.38,696.50 1340.97,696.50 1341.55,696.50 1342.14,696.50 1342.73,696.50 1343.31,696.50 1343.90,696.50 1344.48,696.50 1345.07,696.50 1345.66,696.50 1346.24,696.50 1346.83,696.50 1347.41,696.50 1348.00,696.50 "/>
<text x="759.00" y="848.00" class="axisLabel">0</text>
<text x="1328.00" y="848.00" class="axisLabel">20.0</text>
</svg>
